<svg xmlns="http://www.w3.org/2000/svg" fill="none" viewBox="0 0 1272 347">
  <defs/>
  <rect width="1272" height="347" fill="#fff" rx="162"/>
  <path fill="#000" d="M373.8 217.9c0 2.5-1.4 3.9-3.9 3.9h-8.7c-2.5 0-3.9-1.4-3.9-3.9v-90.3c0-2.5 1.4-3.9 3.9-3.9h29.2c20.9 0 34.1 12.5 34.1 31.3s-13.1 31.3-34.1 31.3h-16.5v31.6h-.1zm15.4-80.3h-15.4v34.8h15.4c11.8 0 18.4-6.8 18.4-17.4.1-10.6-6.6-17.4-18.4-17.4zM436.4 194v-40.9c0-2.5 1.4-3.9 3.9-3.9h8.1c2.5 0 3.9 1.4 3.9 3.9v39.5c0 9.8 6.7 16.7 16.3 16.7 10.1 0 18.8-8.5 18.8-20.5v-35.7c0-2.5 1.4-3.9 3.9-3.9h8.2c2.5 0 3.9 1.4 3.9 3.9v64.8c0 2.5-1.4 3.9-3.9 3.9h-8.2c-2.5 0-3.9-1.4-3.9-3.9v-5.7a27.2 27.2 0 01-22.1 11.2c-17.4 0-28.9-11.5-28.9-29.4zM526.9 119.4h8.1c2.5 0 3.9 1.4 3.9 3.9v94.6c0 2.5-1.4 3.9-3.9 3.9h-8.1c-2.5 0-3.9-1.4-3.9-3.9v-94.5c0-2.6 1.4-4 3.9-4zM557 194v-40.9c0-2.5 1.4-3.9 3.9-3.9h8.1c2.5 0 3.9 1.4 3.9 3.9v39.5c0 9.8 6.7 16.7 16.3 16.7 10.1 0 18.8-8.5 18.8-20.5v-35.7c0-2.5 1.4-3.9 3.9-3.9h8.2c2.5 0 3.9 1.4 3.9 3.9v64.8c0 2.5-1.4 3.9-3.9 3.9H612c-2.5 0-3.9-1.4-3.9-3.9v-5.7a27.2 27.2 0 01-22.1 11.2c-17.4 0-29-11.5-29-29.4zM756.2 177.1V218c0 2.5-1.4 3.9-3.9 3.9h-8.2c-2.5 0-3.9-1.4-3.9-3.9v-39.5c0-9.8-6.1-16.7-15.1-16.7s-17.6 9.1-17.6 20.1V218c0 2.5-1.4 3.9-3.9 3.9h-8.2c-2.5 0-3.9-1.4-3.9-3.9v-39.5c0-9.8-6.1-16.7-15.1-16.7-8.6 0-17.6 8.3-17.6 20.1V218c0 2.5-1.4 3.9-3.9 3.9h-8.2c-2.5 0-3.9-1.4-3.9-3.9v-64.8c0-2.5 1.4-3.9 3.9-3.9h8.2c2.5 0 3.9 1.4 3.9 3.9v5.5a26.6 26.6 0 0145.5 4 27.2 27.2 0 0124-15.1c15.8-.1 27.9 11.5 27.9 29.5zM782.2 119.5c5.6 0 9.9 4.3 9.9 9.8 0 5.5-4.3 9.7-9.9 9.7a9.7 9.7 0 01-9.9-9.7c0-5.4 4.2-9.8 9.9-9.8zm-4.1 29.7h8.1c2.5 0 3.9 1.4 3.9 3.9v64.8c0 2.5-1.4 3.9-3.9 3.9h-8.1c-2.5 0-3.9-1.4-3.9-3.9v-64.8c0-2.5 1.4-3.9 3.9-3.9zM871 153.7l-24.2 65c-.8 2.2-2.3 3.2-4.5 3.2h-10.2c-2.2 0-3.8-1-4.5-3.2l-24.2-65c-1-2.7.3-4.5 3.2-4.5h8.5c2.2 0 3.7 1 4.5 3.1l17.7 49.6 17.7-49.6c.8-2.1 2.2-3.1 4.5-3.1h8.5c2.7 0 3.9 1.7 3 4.5zM916.8 210.3c8.8 0 15.4-2.7 21.6-8.1 1.9-1.7 3.8-1.7 5.5.1l3 2.9c1.8 1.8 2 3.7.2 5.5a40.4 40.4 0 01-30.3 12.7 38 38 0 11-1.4-76A36.5 36.5 0 01953 184l-.1 2.7c-.2 2.4-1.8 3.6-4.2 3.6h-55.9a23.2 23.2 0 0024 20zm-23.4-32h43.2a21 21 0 00-20.9-17.5 22.7 22.7 0 00-22.3 17.5zM982.7 182.4V218c0 2.5-1.4 3.9-3.9 3.9h-8.2c-2.5 0-3.9-1.4-3.9-3.9v-64.8c0-2.5 1.4-3.9 3.9-3.9h8.2c2.5 0 3.9 1.4 3.9 3.9v6.1a26 26 0 0124.3-11.5c2.4.4 3.4 2 3.2 4.4l-.6 6.7c-.2 2.7-1.8 3.6-4.3 3.2l-3.6-.3c-10-.1-19 8.5-19 20.6zM1028.5 203.9c4.6 4 10.1 6.4 16.4 6.4 7.9 0 12.7-3.6 12.7-9 0-5.2-3.9-8.5-14.3-10.6-15.8-3.2-23.6-10.9-23.6-22.5 0-11.8 9.8-20.7 25.3-20.7 13.5 0 22.8 6.4 26 17.6.8 2.7-.8 4.3-3.5 4.3h-7.6c-2.3 0-3.4-1.1-4.3-3.3-1.5-3.4-4.9-5.5-9.7-5.5-6 0-10.4 3.1-10.4 7.6 0 4.6 4.1 8.3 13.2 10.1 16.7 3.4 24.6 10.9 24.6 23 0 12.5-10.3 21.9-27.8 21.9a31.7 31.7 0 01-24.8-11.5c-1.6-1.8-1.5-3.7.1-5.5l2-2.3c1.8-1.7 3.7-1.7 5.7 0zM1122.2 210.3c8.8 0 15.4-2.7 21.6-8.1 1.9-1.7 3.8-1.7 5.5.1l3 2.9c1.8 1.8 2 3.7.2 5.5a40.4 40.4 0 01-30.3 12.7 38 38 0 11-1.4-76 36.5 36.5 0 0137.6 36.6l-.1 2.7c-.2 2.4-1.8 3.6-4.2 3.6h-55.9a23.3 23.3 0 0024 20zm-23.4-32h43.2a21 21 0 00-20.9-17.5 22.9 22.9 0 00-22.3 17.5z"/>
  <path fill="url(#paint0_linear_701_2)" d="M259.5 132.9a17.9 17.9 0 100-35.8 17.9 17.9 0 000 35.8z"/>
  <path fill="url(#paint1_linear_701_2)" d="M272.1 186.3l-2.1.1a70.2 70.2 0 00-3.9-49c-1.3-2.6-14.1-20-24.4-26.5a75.1 75.1 0 00-39.4-10.4 67 67 0 00-51.4 20.5 21.3 21.3 0 00-16.1-7.3 21.3 21.3 0 00-20.8 22.1c.5 11.1 9.3 19 18.1 20.5.8.2 1.9.8 2.2 1.6.9 2.4.4 5 .4 8.8 0 8.6 1.6 16.9 4.5 24.4a20.2 20.2 0 00-19 20.6c.3 12.3 11.8 21.1 23.8 19.6l3.5-.6c3.7-.8 7.8.5 9.5 1.9 2.6 2 3.9 2.6 5 5.5 2.6 7 7.3 11.2 15 12.3 8.5 1.2 17.4.8 22.6-10.5.8-2 3.1-2.3 4.2-2.3 1.7 0 3.2.6 5 2 4.1 6.2 12 8.8 21.3 8.8a24.2 24.2 0 0024.2-24.3c0-3.1.8-3.4 2.3-4.2 1.5-.8 2.7-.3 5.7.4 3.7.8 7 2.1 11.4 1.6a18 18 0 0015.8-14.9 17.4 17.4 0 00-17.4-20.7z"/>
  <path fill="#EDEDEE" d="M244.7 200.2a14.3 14.3 0 100-28.6 14.3 14.3 0 000 28.6z"/>
  <path fill="#000" d="M244.6 195.3a8.9 8.9 0 100-17.8 8.9 8.9 0 000 17.8z"/>
  <path fill="#EDEDEE" d="M176.8 206.9a14.3 14.3 0 100-28.6 14.3 14.3 0 000 28.6z"/>
  <path fill="#000" d="M176.7 202a8.9 8.9 0 100-17.8 8.9 8.9 0 000 17.8z"/>
  <path fill="#F7BF2A" d="M154.4 165.4a2.6 2.6 0 100-5.2 2.6 2.6 0 000 5.2zM175.4 137.5a3.8 3.8 0 100-7.6 3.8 3.8 0 000 7.6zM157 132.7a2.9 2.9 0 100-5.8 2.9 2.9 0 000 5.8zM185.9 145.3a2.9 2.9 0 100-5.8 2.9 2.9 0 000 5.8zM210.3 123.2a2.5 2.5 0 100-5 2.5 2.5 0 000 5zM182.9 119.3a3 3 0 100-6 3 3 0 000 6zM252.5 145.8a3.3 3.3 0 100-6.6 3.3 3.3 0 000 6.6zM239.1 156.4a2.9 2.9 0 100-5.8 2.9 2.9 0 000 5.8zM239 144.5a2.8 2.8 0 100-5.6 2.8 2.8 0 000 5.6zM217.8 139.2a3.6 3.6 0 100-7.2 3.6 3.6 0 000 7.2zM230.1 122a2.9 2.9 0 100-5.8 2.9 2.9 0 000 5.8zM238.7 123.8a2.9 2.9 0 100-5.8 2.9 2.9 0 000 5.8z"/>
  <defs>
    <linearGradient id="paint0_linear_701_2" x1="245.3" x2="277.1" y1="122.3" y2="106" gradientUnits="userSpaceOnUse">
      <stop stop-color="#8A3391"/>
      <stop offset="1" stop-color="#F26E7E"/>
    </linearGradient>
    <linearGradient id="paint1_linear_701_2" x1="113.8" x2="270.9" y1="133.1" y2="212.6" gradientUnits="userSpaceOnUse">
      <stop offset=".2" stop-color="#8A1391"/>
      <stop offset=".3" stop-color="#9F218E"/>
      <stop offset=".8" stop-color="#DB4985"/>
      <stop offset="1" stop-color="#F35881"/>
    </linearGradient>
  </defs>
</svg>
