<?xml version="1.0" encoding="utf-8"?>
<!-- Generator: Adobe Illustrator 25.4.1, SVG Export Plug-In . SVG Version: 6.00 Build 0)  -->
<svg version="1.1" id="Layer_1" xmlns="http://www.w3.org/2000/svg" xmlns:xlink="http://www.w3.org/1999/xlink" x="0px" y="0px"
	 viewBox="0 0 1178.4 287.5" style="enable-background:new 0 0 1178.4 287.5;" xml:space="preserve">
<style type="text/css">
	.st0{fill:#EDEDEE;}
	
		.st1{clip-path:url(#SVGID_00000038406657470041732040000015908488567615737508_);fill:url(#SVGID_00000011019978224581000660000014278531087111506861_);}
	
		.st2{clip-path:url(#SVGID_00000114060230701050728940000013940211569360800158_);fill:url(#SVGID_00000142873810520613376980000016181078894315668364_);}
	.st3{clip-path:url(#SVGID_00000152246921116571601580000008289836366449895093_);}
	.st4{fill:#F7BF2A;}
</style>
<g>
	<path class="st0" d="M326.8,187.9c0,2.5-1.4,3.9-3.9,3.9h-8.7c-2.5,0-3.9-1.4-3.9-3.9V97.6c0-2.5,1.4-3.9,3.9-3.9h29.2
		c20.9,0,34.1,12.5,34.1,31.3c0,18.8-13.1,31.3-34.1,31.3h-16.5V187.9z M342.2,107.6h-15.4v34.8h15.4c11.8,0,18.4-6.8,18.4-17.4
		C360.7,114.4,354,107.6,342.2,107.6z"/>
	<path class="st0" d="M389.4,164v-40.9c0-2.5,1.4-3.9,3.9-3.9h8.1c2.5,0,3.9,1.4,3.9,3.9v39.5c0,9.8,6.7,16.7,16.3,16.7
		c10.1,0,18.8-8.5,18.8-20.5v-35.7c0-2.5,1.4-3.9,3.9-3.9h8.2c2.5,0,3.9,1.4,3.9,3.9v64.8c0,2.5-1.4,3.9-3.9,3.9h-8.2
		c-2.5,0-3.9-1.4-3.9-3.9v-5.7c-4.9,6.7-12.8,11.2-22.1,11.2C400.9,193.4,389.4,181.9,389.4,164z"/>
	<path class="st0" d="M479.9,89.4h8.1c2.5,0,3.9,1.4,3.9,3.9v94.6c0,2.5-1.4,3.9-3.9,3.9h-8.1c-2.5,0-3.9-1.4-3.9-3.9V93.4
		C476,90.8,477.4,89.4,479.9,89.4z"/>
	<path class="st0" d="M510,164v-40.9c0-2.5,1.4-3.9,3.9-3.9h8.1c2.5,0,3.9,1.4,3.9,3.9v39.5c0,9.8,6.7,16.7,16.3,16.7
		c10.1,0,18.8-8.5,18.8-20.5v-35.7c0-2.5,1.4-3.9,3.9-3.9h8.2c2.5,0,3.9,1.4,3.9,3.9v64.8c0,2.5-1.4,3.9-3.9,3.9H565
		c-2.5,0-3.9-1.4-3.9-3.9v-5.7c-4.9,6.7-12.8,11.2-22.1,11.2C521.6,193.4,510,181.9,510,164z"/>
	<path class="st0" d="M709.2,147.1v40.9c0,2.5-1.4,3.9-3.9,3.9h-8.2c-2.5,0-3.9-1.4-3.9-3.9v-39.5c0-9.8-6.1-16.7-15.1-16.7
		c-9,0-17.6,9.1-17.6,20.1v36.1c0,2.5-1.4,3.9-3.9,3.9h-8.2c-2.5,0-3.9-1.4-3.9-3.9v-39.5c0-9.8-6.1-16.7-15.1-16.7
		c-8.6,0-17.6,8.3-17.6,20.1v36.1c0,2.5-1.4,3.9-3.9,3.9h-8.2c-2.5,0-3.9-1.4-3.9-3.9v-64.8c0-2.5,1.4-3.9,3.9-3.9h8.2
		c2.5,0,3.9,1.4,3.9,3.9v5.5c5-6.7,12.4-11.1,20.9-11.1c10.9,0,20.1,5.7,24.6,15.1c4.8-9.1,13.7-15.1,24-15.1
		C697.1,117.5,709.2,129.1,709.2,147.1z"/>
	<path class="st0" d="M735.2,89.5c5.6,0,9.9,4.3,9.9,9.8c0,5.5-4.3,9.7-9.9,9.7s-9.9-4.3-9.9-9.7C725.3,93.9,729.5,89.5,735.2,89.5z
		 M731.1,119.2h8.1c2.5,0,3.9,1.4,3.9,3.9v64.8c0,2.5-1.4,3.9-3.9,3.9h-8.1c-2.5,0-3.9-1.4-3.9-3.9v-64.8
		C727.2,120.6,728.6,119.2,731.1,119.2z"/>
	<path class="st0" d="M824,123.7l-24.2,65c-0.8,2.2-2.3,3.2-4.5,3.2h-10.2c-2.2,0-3.8-1-4.5-3.2l-24.2-65c-1-2.7,0.3-4.5,3.2-4.5
		h8.5c2.2,0,3.7,1,4.5,3.1l17.7,49.6l17.7-49.6c0.8-2.1,2.2-3.1,4.5-3.1h8.5C823.7,119.2,824.9,120.9,824,123.7z"/>
	<path class="st0" d="M869.8,180.3c8.8,0,15.4-2.7,21.6-8.1c1.9-1.7,3.8-1.7,5.5,0.1l3,2.9c1.8,1.8,2,3.7,0.2,5.5
		c-7.5,7.6-16.9,12.7-30.3,12.7c-24.2,0-40.4-16.8-40.4-38c0-21.1,16.7-38,39-38c21.9,0,37.6,16.5,37.6,36.6c0,0.8-0.1,1.8-0.1,2.7
		c-0.2,2.4-1.8,3.6-4.2,3.6h-55.9C847.4,171.9,857,180.3,869.8,180.3z M846.4,148.3h43.2c-2-10.2-10.2-17.5-20.9-17.5
		C857.9,130.7,849,138,846.4,148.3z"/>
	<path class="st0" d="M935.7,152.4v35.6c0,2.5-1.4,3.9-3.9,3.9h-8.2c-2.5,0-3.9-1.4-3.9-3.9v-64.8c0-2.5,1.4-3.9,3.9-3.9h8.2
		c2.5,0,3.9,1.4,3.9,3.9v6.1c4.6-6.7,12.2-11.7,21.4-11.7c1,0,2,0.1,2.9,0.2c2.4,0.4,3.4,2,3.2,4.4l-0.6,6.7
		c-0.2,2.7-1.8,3.6-4.3,3.2c-1.2-0.2-2.4-0.3-3.6-0.3C944.7,131.7,935.7,140.3,935.7,152.4z"/>
	<path class="st0" d="M981.5,173.9c4.6,4,10.1,6.4,16.4,6.4c7.9,0,12.7-3.6,12.7-9c0-5.2-3.9-8.5-14.3-10.6
		c-15.8-3.2-23.6-10.9-23.6-22.5c0-11.8,9.8-20.7,25.3-20.7c13.5,0,22.8,6.4,26,17.6c0.8,2.7-0.8,4.3-3.5,4.3h-7.6
		c-2.3,0-3.4-1.1-4.3-3.3c-1.5-3.4-4.9-5.5-9.7-5.5c-6,0-10.4,3.1-10.4,7.6c0,4.6,4.1,8.3,13.2,10.1c16.7,3.4,24.6,10.9,24.6,23
		c0,12.5-10.3,21.9-27.8,21.9c-10.2,0-18.3-4.1-24.8-11.5c-1.6-1.8-1.5-3.7,0.1-5.5l2-2.3C977.6,172.2,979.5,172.2,981.5,173.9z"/>
	<path class="st0" d="M1075.2,180.3c8.8,0,15.4-2.7,21.6-8.1c1.9-1.7,3.8-1.7,5.5,0.1l3,2.9c1.8,1.8,2,3.7,0.2,5.5
		c-7.5,7.6-16.9,12.7-30.3,12.7c-24.2,0-40.4-16.8-40.4-38c0-21.1,16.7-38,39-38c21.9,0,37.6,16.5,37.6,36.6c0,0.8-0.1,1.8-0.1,2.7
		c-0.2,2.4-1.8,3.6-4.2,3.6h-55.9C1052.9,171.9,1062.4,180.3,1075.2,180.3z M1051.8,148.3h43.2c-2-10.2-10.2-17.5-20.9-17.5
		S1054.4,138,1051.8,148.3z"/>
</g>
<g>
	<g>
		<g>
			<g>
				<g>
					<g>
						<defs>
							<path id="SVGID_1_" d="M225.1,156.3c-0.7,0-1.4,0.1-2.1,0.1c1.8-6.2,2.8-12.8,2.8-19.5c0-10.7-2.4-20.6-6.7-29.5
								c-0.4-0.7-1.6-2.6-3.4-4.9c8.2-1.6,14.4-8.8,14.4-17.5c0-9.8-8-17.9-17.9-17.9c-8.5,0-15.6,5.9-17.4,13.9
								c-0.1-0.1-0.2-0.1-0.2-0.2c-10.9-6.7-24.3-10.4-39.2-10.4c-22.3,0-39.8,7.7-51.4,20.5c-3.9-4.5-9.7-7.3-16.1-7.3
								C76,83.6,66.5,93.9,67,105.7c0.5,11.1,9.3,19,18.1,20.5c0.8,0.2,1.9,0.8,2.2,1.6c0.9,2.4,0.4,5,0.4,8.8
								c0,8.6,1.6,16.9,4.5,24.4c-10.8,0.6-19.2,9.7-19,20.6c0.4,12.1,11.8,20.8,23.8,19.3c1.1-0.2,2.2-0.4,3.5-0.6
								c3.7-0.8,7.8,0.5,9.5,1.9c2.6,2,3.9,2.6,5,5.5c2.6,7,7.2,13.6,15,14.7c8.5,1.2,17.5-1.6,22.8-12.9c0.8-2,3.1-2.3,4.2-2.3
								c1.7,0,3.2,0.6,5,2c4.1,6.2,12,8.8,21.3,8.8c13.4,0,24.2-10.9,24.2-24.3c0-3.1,0.8-3.4,2.3-4.2c1.5-0.8,2.7-0.3,5.7,0.4
								c3.7,0.8,7,2.1,11.4,1.6c7.9-0.8,14.5-7,15.8-14.9C244.7,165.9,236,156.3,225.1,156.3z"/>
						</defs>
						<clipPath id="SVGID_00000137846380552142826040000007995978301583822258_">
							<use xlink:href="#SVGID_1_"  style="overflow:visible;"/>
						</clipPath>
						
							<linearGradient id="SVGID_00000009559560449940531320000014515470615451865993_" gradientUnits="userSpaceOnUse" x1="198.3156" y1="-240.195" x2="230.1065" y2="-256.5387" gradientTransform="matrix(1 0 0 1 0 332.5195)">
							<stop  offset="0" style="stop-color:#8A3391"/>
							<stop  offset="1" style="stop-color:#F26E7E"/>
						</linearGradient>
						
							<circle style="clip-path:url(#SVGID_00000137846380552142826040000007995978301583822258_);fill:url(#SVGID_00000009559560449940531320000014515470615451865993_);" cx="212.5" cy="85" r="17.9"/>
					</g>
				</g>
			</g>
		</g>
		<g>
			<g>
				<g>
					<g>
						<defs>
							<path id="SVGID_00000054970296605881189540000004440155497944982426_" d="M225.1,156.3c-0.7,0-1.4,0.1-2.1,0.1
								c1.8-6.2,2.8-12.8,2.8-19.5c0-10.7-2.4-20.6-6.7-29.5c-0.4-0.7-1.6-2.6-3.4-4.9c8.2-1.6,14.4-8.8,14.4-17.5
								c0-9.8-8-17.9-17.9-17.9c-8.5,0-15.6,5.9-17.4,13.9c-0.1-0.1-0.2-0.1-0.2-0.2c-10.9-6.7-24.3-10.4-39.2-10.4
								c-22.3,0-39.8,7.7-51.4,20.5c-3.9-4.5-9.7-7.3-16.1-7.3C76,83.6,66.5,93.9,67,105.7c0.5,11.1,9.3,19,18.1,20.5
								c0.8,0.2,1.9,0.8,2.2,1.6c0.9,2.4,0.4,5,0.4,8.8c0,8.6,1.6,16.9,4.5,24.4c-10.8,0.6-19.2,9.7-19,20.6
								c0.4,12.1,11.8,20.8,23.8,19.3c1.1-0.2,2.2-0.4,3.5-0.6c3.7-0.8,7.8,0.5,9.5,1.9c2.6,2,3.9,2.6,5,5.5c2.6,7,7.2,13.6,15,14.7
								c8.5,1.2,17.5-1.6,22.8-12.9c0.8-2,3.1-2.3,4.2-2.3c1.7,0,3.2,0.6,5,2c4.1,6.2,12,8.8,21.3,8.8c13.4,0,24.2-10.9,24.2-24.3
								c0-3.1,0.8-3.4,2.3-4.2c1.5-0.8,2.7-0.3,5.7,0.4c3.7,0.8,7,2.1,11.4,1.6c7.9-0.8,14.5-7,15.8-14.9
								C244.7,165.9,236,156.3,225.1,156.3z"/>
						</defs>
						<clipPath id="SVGID_00000053522571603669955460000012490547548239534249_">
							<use xlink:href="#SVGID_00000054970296605881189540000004440155497944982426_"  style="overflow:visible;"/>
						</clipPath>
						
							<linearGradient id="SVGID_00000129205640267739014940000012573529993349449910_" gradientUnits="userSpaceOnUse" x1="66.8312" y1="-229.4564" x2="223.9467" y2="-149.8793" gradientTransform="matrix(1 0 0 1 0 332.5195)">
							<stop  offset="0.1528" style="stop-color:#8A1391"/>
							<stop  offset="0.3077" style="stop-color:#9F218E"/>
							<stop  offset="0.7764" style="stop-color:#DB4985"/>
							<stop  offset="1" style="stop-color:#F35881"/>
						</linearGradient>
						
							<path style="clip-path:url(#SVGID_00000053522571603669955460000012490547548239534249_);fill:url(#SVGID_00000129205640267739014940000012573529993349449910_);" d="
							M225.1,156.3c-0.7,0-1.4,0.1-2.1,0.1c1.8-6.2,2.8-12.8,2.8-19.5c0-10.7-2.4-20.6-6.7-29.5c-1.3-2.6-14.1-20-24.4-26.5
							c-11-6.7-24.4-10.4-39.4-10.4c-22.3,0-39.8,7.7-51.4,20.5c-3.9-4.5-9.7-7.3-16.1-7.3c-11.8,0.1-21.3,10.3-20.8,22.1
							c0.5,11.1,9.3,19,18.1,20.5c0.8,0.2,1.9,0.8,2.2,1.6c0.9,2.4,0.4,5,0.4,8.8c0,8.6,1.6,16.9,4.5,24.4
							c-10.8,0.6-19.2,9.7-19,20.6C73.5,194,85,202.8,97,201.3c1.1-0.2,2.2-0.4,3.5-0.6c3.7-0.8,7.8,0.5,9.5,1.9
							c2.6,2,3.9,2.6,5,5.5c2.6,7,7.3,11.2,15,12.3c8.5,1.2,17.4,0.8,22.6-10.5c0.8-2,3.1-2.3,4.2-2.3c1.7,0,3.2,0.6,5,2
							c4.1,6.2,12,8.8,21.3,8.8c13.4,0,24.2-10.9,24.2-24.3c0-3.1,0.8-3.4,2.3-4.2c1.5-0.8,2.7-0.3,5.7,0.4c3.7,0.8,7,2.1,11.4,1.6
							c7.9-0.8,14.5-7,15.8-14.9C244.7,165.9,236,156.3,225.1,156.3z"/>
					</g>
				</g>
			</g>
		</g>
		<g>
			<g>
				<g>
					<g>
						<defs>
							<path id="SVGID_00000108309451481967677350000005441758614428000151_" d="M225.1,156.3c-0.7,0-1.4,0.1-2.1,0.1
								c1.8-6.2,2.8-12.8,2.8-19.5c0-10.7-2.4-20.6-6.7-29.5c-0.4-0.7-1.6-2.6-3.4-4.9c8.2-1.6,14.4-8.8,14.4-17.5
								c0-9.8-8-17.9-17.9-17.9c-8.5,0-15.6,5.9-17.4,13.9c-0.1-0.1-0.2-0.1-0.2-0.2c-10.9-6.7-24.3-10.4-39.2-10.4
								c-22.3,0-39.8,7.7-51.4,20.5c-3.9-4.5-9.7-7.3-16.1-7.3C76,83.6,66.5,93.9,67,105.7c0.5,11.1,9.3,19,18.1,20.5
								c0.8,0.2,1.9,0.8,2.2,1.6c0.9,2.4,0.4,5,0.4,8.8c0,8.6,1.6,16.9,4.5,24.4c-10.8,0.6-19.2,9.7-19,20.6
								c0.4,12.1,11.8,20.8,23.8,19.3c1.1-0.2,2.2-0.4,3.5-0.6c3.7-0.8,7.8,0.5,9.5,1.9c2.6,2,3.9,2.6,5,5.5c2.6,7,7.2,13.6,15,14.7
								c8.5,1.2,17.5-1.6,22.8-12.9c0.8-2,3.1-2.3,4.2-2.3c1.7,0,3.2,0.6,5,2c4.1,6.2,12,8.8,21.3,8.8c13.4,0,24.2-10.9,24.2-24.3
								c0-3.1,0.8-3.4,2.3-4.2c1.5-0.8,2.7-0.3,5.7,0.4c3.7,0.8,7,2.1,11.4,1.6c7.9-0.8,14.5-7,15.8-14.9
								C244.7,165.9,236,156.3,225.1,156.3z"/>
						</defs>
						<clipPath id="SVGID_00000003094828899154277600000002610026958571059632_">
							<use xlink:href="#SVGID_00000108309451481967677350000005441758614428000151_"  style="overflow:visible;"/>
						</clipPath>
						<g style="clip-path:url(#SVGID_00000003094828899154277600000002610026958571059632_);">
							<circle class="st0" cx="197.7" cy="155.9" r="14.3"/>
							<circle cx="197.6" cy="156.4" r="8.9"/>
							<circle class="st0" cx="129.8" cy="162.6" r="14.3"/>
							<circle cx="129.7" cy="163.1" r="8.9"/>
						</g>
					</g>
				</g>
			</g>
		</g>
	</g>
	<g>
		<circle class="st4" cx="107.4" cy="132.8" r="2.6"/>
		<circle class="st4" cx="128.4" cy="103.7" r="3.8"/>
		<circle class="st4" cx="110" cy="99.8" r="2.9"/>
		<circle class="st4" cx="138.9" cy="112.4" r="2.9"/>
		<circle class="st4" cx="163.3" cy="90.7" r="2.5"/>
		<circle class="st4" cx="135.9" cy="86.3" r="3"/>
		<circle class="st4" cx="205.5" cy="112.5" r="3.3"/>
		<circle class="st4" cx="192.1" cy="123.5" r="2.9"/>
		<circle class="st4" cx="192" cy="111.7" r="2.8"/>
		<circle class="st4" cx="170.8" cy="105.6" r="3.6"/>
		<circle class="st4" cx="183.1" cy="89.1" r="2.9"/>
		<circle class="st4" cx="191.7" cy="90.9" r="2.9"/>
	</g>
</g>
</svg>
