<?xml version="1.0" encoding="utf-8"?>
<!-- Generator: Adobe Illustrator 25.4.1, SVG Export Plug-In . SVG Version: 6.00 Build 0)  -->
<svg version="1.1" id="Layer_1" xmlns="http://www.w3.org/2000/svg" xmlns:xlink="http://www.w3.org/1999/xlink" x="0px" y="0px"
	 viewBox="0 0 310.2 287.5" style="enable-background:new 0 0 310.2 287.5;" xml:space="preserve">
<style type="text/css">
	
		.st0{clip-path:url(#SVGID_00000119825280317800143570000001389124480741629335_);fill:url(#SVGID_00000181774656652550874070000006055222796416010378_);}
	
		.st1{clip-path:url(#SVGID_00000173150431619734374140000010256582279132915339_);fill:url(#SVGID_00000016760653493547559900000003477798354493222562_);}
	.st2{clip-path:url(#SVGID_00000083082324353471347210000010121372488938449083_);}
	.st3{fill:#EDEDEE;}
	.st4{fill:#F7BF2A;}
</style>
<g>
	<g>
		<g>
			<g>
				<g>
					<g>
						<defs>
							<path id="SVGID_1_" d="M225.1,156.3c-0.7,0-1.4,0.1-2.1,0.1c1.8-6.2,2.8-12.8,2.8-19.5c0-10.7-2.4-20.6-6.7-29.5
								c-0.4-0.7-1.6-2.6-3.4-4.9c8.2-1.6,14.4-8.8,14.4-17.5c0-9.8-8-17.9-17.9-17.9c-8.5,0-15.6,5.9-17.4,13.9
								c-0.1-0.1-0.2-0.1-0.2-0.2c-10.9-6.7-24.3-10.4-39.2-10.4c-22.3,0-39.8,7.7-51.4,20.5c-3.9-4.5-9.7-7.3-16.1-7.3
								C76,83.6,66.5,93.9,67,105.7c0.5,11.1,9.3,19,18.1,20.5c0.8,0.2,1.9,0.8,2.2,1.6c0.9,2.4,0.4,5,0.4,8.8
								c0,8.6,1.6,16.9,4.5,24.4c-10.8,0.6-19.2,9.7-19,20.6c0.4,12.1,11.8,20.8,23.8,19.3c1.1-0.2,2.2-0.4,3.5-0.6
								c3.7-0.8,7.8,0.5,9.5,1.9c2.6,2,3.9,2.6,5,5.5c2.6,7,7.2,13.6,15,14.7c8.5,1.2,17.5-1.6,22.8-12.9c0.8-2,3.1-2.3,4.2-2.3
								c1.7,0,3.2,0.6,5,2c4.1,6.2,12,8.8,21.3,8.8c13.4,0,24.2-10.9,24.2-24.3c0-3.1,0.8-3.4,2.3-4.2c1.5-0.8,2.7-0.3,5.7,0.4
								c3.7,0.8,7,2.1,11.4,1.6c7.9-0.8,14.5-7,15.8-14.9C244.7,165.9,236,156.3,225.1,156.3z"/>
						</defs>
						<clipPath id="SVGID_00000023995240419335833170000013832603669082619561_">
							<use xlink:href="#SVGID_1_"  style="overflow:visible;"/>
						</clipPath>
						
							<linearGradient id="SVGID_00000149379968338359571420000017677980992429769105_" gradientUnits="userSpaceOnUse" x1="198.3156" y1="-240.195" x2="230.1065" y2="-256.5387" gradientTransform="matrix(1 0 0 1 0 332.5195)">
							<stop  offset="0" style="stop-color:#8A3391"/>
							<stop  offset="1" style="stop-color:#F26E7E"/>
						</linearGradient>
						
							<circle style="clip-path:url(#SVGID_00000023995240419335833170000013832603669082619561_);fill:url(#SVGID_00000149379968338359571420000017677980992429769105_);" cx="212.5" cy="85" r="17.9"/>
					</g>
				</g>
			</g>
		</g>
		<g>
			<g>
				<g>
					<g>
						<defs>
							<path id="SVGID_00000145029335588538127750000000843046205598392725_" d="M225.1,156.3c-0.7,0-1.4,0.1-2.1,0.1
								c1.8-6.2,2.8-12.8,2.8-19.5c0-10.7-2.4-20.6-6.7-29.5c-0.4-0.7-1.6-2.6-3.4-4.9c8.2-1.6,14.4-8.8,14.4-17.5
								c0-9.8-8-17.9-17.9-17.9c-8.5,0-15.6,5.9-17.4,13.9c-0.1-0.1-0.2-0.1-0.2-0.2c-10.9-6.7-24.3-10.4-39.2-10.4
								c-22.3,0-39.8,7.7-51.4,20.5c-3.9-4.5-9.7-7.3-16.1-7.3C76,83.6,66.5,93.9,67,105.7c0.5,11.1,9.3,19,18.1,20.5
								c0.8,0.2,1.9,0.8,2.2,1.6c0.9,2.4,0.4,5,0.4,8.8c0,8.6,1.6,16.9,4.5,24.4c-10.8,0.6-19.2,9.7-19,20.6
								c0.4,12.1,11.8,20.8,23.8,19.3c1.1-0.2,2.2-0.4,3.5-0.6c3.7-0.8,7.8,0.5,9.5,1.9c2.6,2,3.9,2.6,5,5.5c2.6,7,7.2,13.6,15,14.7
								c8.5,1.2,17.5-1.6,22.8-12.9c0.8-2,3.1-2.3,4.2-2.3c1.7,0,3.2,0.6,5,2c4.1,6.2,12,8.8,21.3,8.8c13.4,0,24.2-10.9,24.2-24.3
								c0-3.1,0.8-3.4,2.3-4.2c1.5-0.8,2.7-0.3,5.7,0.4c3.7,0.8,7,2.1,11.4,1.6c7.9-0.8,14.5-7,15.8-14.9
								C244.7,165.9,236,156.3,225.1,156.3z"/>
						</defs>
						<clipPath id="SVGID_00000128480848117449302950000015988741872558695065_">
							<use xlink:href="#SVGID_00000145029335588538127750000000843046205598392725_"  style="overflow:visible;"/>
						</clipPath>
						
							<linearGradient id="SVGID_00000027570887750398635570000012184696873623167419_" gradientUnits="userSpaceOnUse" x1="66.8312" y1="-229.4564" x2="223.9467" y2="-149.8793" gradientTransform="matrix(1 0 0 1 0 332.5195)">
							<stop  offset="0.1528" style="stop-color:#8A1391"/>
							<stop  offset="0.3077" style="stop-color:#9F218E"/>
							<stop  offset="0.7764" style="stop-color:#DB4985"/>
							<stop  offset="1" style="stop-color:#F35881"/>
						</linearGradient>
						
							<path style="clip-path:url(#SVGID_00000128480848117449302950000015988741872558695065_);fill:url(#SVGID_00000027570887750398635570000012184696873623167419_);" d="
							M225.1,156.3c-0.7,0-1.4,0.1-2.1,0.1c1.8-6.2,2.8-12.8,2.8-19.5c0-10.7-2.4-20.6-6.7-29.5c-1.3-2.6-14.1-20-24.4-26.5
							c-11-6.7-24.4-10.4-39.4-10.4c-22.3,0-39.8,7.7-51.4,20.5c-3.9-4.5-9.7-7.3-16.1-7.3c-11.8,0.1-21.3,10.3-20.8,22.1
							c0.5,11.1,9.3,19,18.1,20.5c0.8,0.2,1.9,0.8,2.2,1.6c0.9,2.4,0.4,5,0.4,8.8c0,8.6,1.6,16.9,4.5,24.4
							c-10.8,0.6-19.2,9.7-19,20.6C73.5,194,85,202.8,97,201.3c1.1-0.2,2.2-0.4,3.5-0.6c3.7-0.8,7.8,0.5,9.5,1.9
							c2.6,2,3.9,2.6,5,5.5c2.6,7,7.3,11.2,15,12.3c8.5,1.2,17.4,0.8,22.6-10.5c0.8-2,3.1-2.3,4.2-2.3c1.7,0,3.2,0.6,5,2
							c4.1,6.2,12,8.8,21.3,8.8c13.4,0,24.2-10.9,24.2-24.3c0-3.1,0.8-3.4,2.3-4.2c1.5-0.8,2.7-0.3,5.7,0.4c3.7,0.8,7,2.1,11.4,1.6
							c7.9-0.8,14.5-7,15.8-14.9C244.7,165.9,236,156.3,225.1,156.3z"/>
					</g>
				</g>
			</g>
		</g>
		<g>
			<g>
				<g>
					<g>
						<defs>
							<path id="SVGID_00000103943259042356887000000016112034212193583547_" d="M225.1,156.3c-0.7,0-1.4,0.1-2.1,0.1
								c1.8-6.2,2.8-12.8,2.8-19.5c0-10.7-2.4-20.6-6.7-29.5c-0.4-0.7-1.6-2.6-3.4-4.9c8.2-1.6,14.4-8.8,14.4-17.5
								c0-9.8-8-17.9-17.9-17.9c-8.5,0-15.6,5.9-17.4,13.9c-0.1-0.1-0.2-0.1-0.2-0.2c-10.9-6.7-24.3-10.4-39.2-10.4
								c-22.3,0-39.8,7.7-51.4,20.5c-3.9-4.5-9.7-7.3-16.1-7.3C76,83.6,66.5,93.9,67,105.7c0.5,11.1,9.3,19,18.1,20.5
								c0.8,0.2,1.9,0.8,2.2,1.6c0.9,2.4,0.4,5,0.4,8.8c0,8.6,1.6,16.9,4.5,24.4c-10.8,0.6-19.2,9.7-19,20.6
								c0.4,12.1,11.8,20.8,23.8,19.3c1.1-0.2,2.2-0.4,3.5-0.6c3.7-0.8,7.8,0.5,9.5,1.9c2.6,2,3.9,2.6,5,5.5c2.6,7,7.2,13.6,15,14.7
								c8.5,1.2,17.5-1.6,22.8-12.9c0.8-2,3.1-2.3,4.2-2.3c1.7,0,3.2,0.6,5,2c4.1,6.2,12,8.8,21.3,8.8c13.4,0,24.2-10.9,24.2-24.3
								c0-3.1,0.8-3.4,2.3-4.2c1.5-0.8,2.7-0.3,5.7,0.4c3.7,0.8,7,2.1,11.4,1.6c7.9-0.8,14.5-7,15.8-14.9
								C244.7,165.9,236,156.3,225.1,156.3z"/>
						</defs>
						<clipPath id="SVGID_00000008867732993275415120000013276185093199680653_">
							<use xlink:href="#SVGID_00000103943259042356887000000016112034212193583547_"  style="overflow:visible;"/>
						</clipPath>
						<g style="clip-path:url(#SVGID_00000008867732993275415120000013276185093199680653_);">
							<circle class="st3" cx="197.7" cy="155.9" r="14.3"/>
							<circle cx="197.6" cy="156.4" r="8.9"/>
							<circle class="st3" cx="129.8" cy="162.6" r="14.3"/>
							<circle cx="129.7" cy="163.1" r="8.9"/>
						</g>
					</g>
				</g>
			</g>
		</g>
	</g>
	<g>
		<circle class="st4" cx="107.4" cy="132.8" r="2.6"/>
		<circle class="st4" cx="128.4" cy="103.7" r="3.8"/>
		<circle class="st4" cx="110" cy="99.8" r="2.9"/>
		<circle class="st4" cx="138.9" cy="112.4" r="2.9"/>
		<circle class="st4" cx="163.3" cy="90.7" r="2.5"/>
		<circle class="st4" cx="135.9" cy="86.3" r="3"/>
		<circle class="st4" cx="205.5" cy="112.5" r="3.3"/>
		<circle class="st4" cx="192.1" cy="123.5" r="2.9"/>
		<circle class="st4" cx="192" cy="111.7" r="2.8"/>
		<circle class="st4" cx="170.8" cy="105.6" r="3.6"/>
		<circle class="st4" cx="183.1" cy="89.1" r="2.9"/>
		<circle class="st4" cx="191.7" cy="90.9" r="2.9"/>
	</g>
</g>
</svg>
